<?xml version="1.0" encoding="utf-8"?>
<svg viewBox="0 0 500 500" width="500px" height="500px" xmlns="http://www.w3.org/2000/svg" xmlnsBx="https://boxy-svg.com"><path fill="#bf3b68" d="M 195.541 186.102 L 216.492 87.552 L 451.909 87.552 C 464.466 87.552 474.652 97.738 474.652 110.295 C 474.79 111.852 474.79 113.424 474.652 114.981 L 416.624 384.582 C 413.675 398.641 401.215 408.675 386.853 408.565 L 292.989 408.565 L 336.13 208.294 C 338.198 198.494 332.079 188.845 322.347 186.516 L 318.488 186.516 L 195.541 186.102 Z" style=""/><path fill="#ff507c" d="M 169.629 202.918 L 169.629 204.158 L 152.261 282.999 C 150.47 291.186 155.652 299.264 163.839 301.055 L 220.902 301.055 C 229.269 300.973 236.119 307.698 236.201 316.079 C 236.34 317.181 236.34 318.284 236.201 319.386 L 217.18 408.151 L 43.787 408.151 C 31.327 408.234 21.127 398.268 20.906 385.822 C 20.769 384.223 20.769 382.596 20.906 380.998 L 78.935 111.673 C 81.925 97.613 94.331 87.565 108.707 87.552 L 194.163 87.552 L 169.629 202.918 Z"/></svg>